<?xml version="1.0" encoding="UTF-8"?>
<svg width="230px" height="48px" viewBox="0 0 220 48" version="1.1" xmlns="http://www.w3.org/2000/svg" xmlns:xlink="http://www.w3.org/1999/xlink">
    <!-- Generator: Sketch 52.5 (67469) - http://www.bohemiancoding.com/sketch -->
    <title>分组 7</title>
    <desc>Created with Sketch.</desc>
    <g id="Page-1" stroke="none" stroke-width="1" fill="none" fill-rule="evenodd">
        <g id="画板" transform="translate(-191.000000, -202.000000)">
            <g id="分组-7" transform="translate(191.000000, 202.000000)">
                <path d="M59.4448637,9.41583962 L59.4448637,27.3811978 C59.4448637,30.2393226 57.9200723,32.8803387 55.4448637,34.3094011 L34,46.6905989 C33.3646972,47.0573912 32.6915559,47.3300402 32,47.508546 L32,17.2788494 L53.576259,5.87912981 C55.5295299,4.8471279 57.9495716,5.59396397 58.9815735,7.54723486 C59.2858277,8.12309693 59.4448637,8.76454267 59.4448637,9.41583962 Z" id="路径" fill="#38B1FF"></path>
                <path d="M26,46.6905989 L4.55513627,34.3094011 C2.07992766,32.8803387 0.555136271,30.2393226 0.555136271,27.3811978 L0.555136271,9.79915622 C0.555136271,7.59001722 2.34599727,5.79915622 4.55513627,5.79915622 C5.20643322,5.79915622 5.84787895,5.95819227 6.42374103,6.26244641 L27.2744963,17.2788494 L27.2744963,47.2839947 C26.8373461,47.1255522 26.410764,46.9277536 26,46.6905989 Z" id="路径" fill="#FFD300"></path>
                <path d="M42.813613,5.88835492 L29.2664608,12.575749 L16.6224817,5.84656161 C15.1598667,5.06815078 14.6052096,3.25144041 15.3836205,1.78882543 C15.9045872,0.809941568 16.9230368,0.19826292 18.0319192,0.19826292 L41.4856804,0.19826292 C43.1425347,0.19826292 44.4856804,1.54140867 44.4856804,3.19826292 C44.4856804,4.3400951 43.8374909,5.38292952 42.813613,5.88835492 Z" id="矩形" fill="#FF532D"></path>
                <circle id="椭圆形" fill="#38B1FF" cx="62" cy="41" r="4"></circle>
                <text id="MARCH" font-family="FZHZGBJW--GB1-0, FZHanZhenGuangBiaoS-GB" font-size="42" font-weight="normal" fill="#757575">
                    <tspan x="70" y="38">MARCH</tspan>
                </text>
            </g>
        </g>
    </g>
</svg>
